<svg xmlns="http://www.w3.org/2000/svg" viewBox="0 0 64 64">
    <defs>
          <radialGradient id="bg" cx="50%" cy="50%" r="50%">
                  <stop offset="0%" stop-color="#1a1a2e"/>
                  <stop offset="100%" stop-color="#0a0a0c"/>
          </radialGradient>
          <linearGradient id="blade1" x1="0%" y1="0%" x2="100%" y2="100%">
                  <stop offset="0%" stop-color="#39FF14" stop-opacity="0.9"/>
                  <stop offset="100%" stop-color="#00E5FF" stop-opacity="0.7"/>
          </linearGradient>
          <filter id="glow">
                  <feGaussianBlur stdDeviation="1.5" result="blur"/>
                  <feMerge><feMergeNode in="blur"/><feMergeNode in="SourceGraphic"/></feMerge>
          </filter>
    </defs>
    <rect width="64" height="64" rx="14" fill="url(#bg)"/>
    <g transform="translate(32,32)" filter="url(#glow)">
          <path d="M0,-18 Q8,-8 2,-2 Q-2,-4 0,-18Z" fill="url(#blade1)" opacity="0.85"/>
          <path d="M0,-18 Q8,-8 2,-2 Q-2,-4 0,-18Z" fill="url(#blade1)" opacity="0.85" transform="rotate(60)"/>
          <path d="M0,-18 Q8,-8 2,-2 Q-2,-4 0,-18Z" fill="url(#blade1)" opacity="0.85" transform="rotate(120)"/>
          <path d="M0,-18 Q8,-8 2,-2 Q-2,-4 0,-18Z" fill="url(#blade1)" opacity="0.85" transform="rotate(180)"/>
          <path d="M0,-18 Q8,-8 2,-2 Q-2,-4 0,-18Z" fill="url(#blade1)" opacity="0.85" transform="rotate(240)"/>
          <path d="M0,-18 Q8,-8 2,-2 Q-2,-4 0,-18Z" fill="url(#blade1)" opacity="0.85" transform="rotate(300)"/>
          <circle r="8" fill="#1a1a2e" stroke="#3a3a5c" stroke-width="1.5"/>
          <circle r="6" fill="none" stroke="#555577" stroke-width="0.5"/>
    </g>
    <text x="32" y="37" text-anchor="middle" font-family="system-ui,sans-serif" font-weight="900" font-size="12" fill="#e0e0e0" letter-spacing="-0.3">IQ</text>
</svg>
